# xmcd CD database file
#
# Track frame offsets:
#	150
#	16234
#	25099
#	36250
#	49574
#	68073
#	80843
#	94731
#	106296
#	122695
#	135845
#	149510
#	162508
#	173953
#	185019
#	195053
#	208641
#	220361
#	229993
#	240568
#
# Disc length: 3339 seconds
#
# Revision: 0
# Processed by: cddbd v1.5.2PL0 Copyright (c) Steve Scherf et al.
# Submitted via: CDex 1.70beta2
#
DISCID=140d0914
DTITLE=The Country Collection - The Most Beautiful Girl
DYEAR=2001
DGENRE=Country
TTITLE0=Lookin' For Love/Johnny Lee
TTITLE1=Let's Think About Living/Bob Luman
TTITLE2=Nobody But A Fool Would Love You/Connie Smith
TTITLE3=Dream Baby/Lacy J. Dalton
TTITLE4=Midnight Train To Georgia/Lynn Anderson
TTITLE5=Never Ending Song Of Love/Dickey Lee
TTITLE6=Tie A Yellow Ribbon 'Round The Ole Oak Tree/Johnny Carver
TTITLE7=Before The Next Tear Drop Falls/Freddy Fender
TTITLE8=The Three Bells/Slim Whitman
TTITLE9=You Can Have Her/Jim Ed Brown
TTITLE10=The Most Beautiful Girl/Charlie Rich
TTITLE11=When I Stop Dreaming/The Louvin Brothers
TTITLE12=My Shoes Keep Walking Back To You/Ray Price
TTITLE13=Little Black Book/Jimmy Dean
TTITLE14=Far Far Away/Don Gibson
TTITLE15=Almost Persuaded/David Houston
TTITLE16=Skip A Rope/Henson Cargill
TTITLE17=I'll Have Another Cup Of Coffee Then I'll Go/Claude Gray
TTITLE18=A Rose And A Baby Ruth/George Hamilton IV
TTITLE19=It Tickles/Tommy Collins
EXTD=YEAR: 2001
EXTT0=
EXTT1=
EXTT2=
EXTT3=
EXTT4=
EXTT5=
EXTT6=
EXTT7=
EXTT8=
EXTT9=
EXTT10=
EXTT11=
EXTT12=
EXTT13=
EXTT14=
EXTT15=
EXTT16=
EXTT17=
EXTT18=
EXTT19=
PLAYORDER=
